#N canvas -8 -8 1366 725 10;
#X obj 201 12 notein;
#X obj 550 31 metro 100;
#X obj 550 52 f;
#X floatatom 550 94 5 0 0 0 - - -;
#X obj 581 53 + 1;
#X obj 550 12 tgl 15 0 empty empty empty 17 7 0 10 -262144 -1 -1 0
1;
#X text 609 53 counter;
#X text 582 94 index;
#X obj 201 193 mtof;
#X obj 201 213 osc~;
#X obj 201 663 dac~;
#N canvas 0 50 450 250 (subpatch) 0;
#X array pitch 100 float 2;
#X coords 0 127 100 0 200 140 1 0 0;
#X restore 796 31 graph;
#N canvas 0 50 450 250 (subpatch) 0;
#X array dist 100 float 5;
#A 0 119 102 85 76 59 42 25 8 8 25 42 59 68 68 68 51 34 25 8 8 25 42
59 76 93 68 119 127 127 127 127 119 102 85 68 59 42 25 8 8 25 42 59
68 68 68 68 68 68 51 34 17 0 17 25 42 59 76 93 76 68 59 51 42 34 25
17 8 0 8 17 25 34 38 47 55 64 72 76 76 76 76 76 72 64 55 47 38 30 21
13 8 0 8 17 25 34 42 51 59;
#X coords 0 127 99 0 200 140 1 0 0;
#X restore 795 344 graph;
#X obj 217 306 / 127;
#X obj 201 391 *~;
#X obj 219 345 hsl 128 15 0 127 0 0 empty empty empty -2 -8 0 10 -262144
-1 -1 12700 1;
#X text 252 371 volume slider;
#X obj 13 183 bng 15 250 50 0 empty empty empty 17 7 0 10 -262144 -1
-1;
#X msg 15 352 arraydialog melody 2000 \$1 0;
#X obj 15 377 s melody;
#X obj 550 73 mod 100;
#X obj 13 283 f;
#X text 72 284 counter;
#X floatatom 13 304 5 0 0 0 - - -;
#X text 70 378 resize array;
#N canvas 0 50 450 250 (subpatch) 0;
#X array vlct 100 float 3;
#A 0 0 0 64 64 64 64 64 64 64 64 64 64 0 64 64 64 64 64 64 64 64 64
64 64 64 0 64 0 64 64 64 64 64 64 0 64 64 64 64 64 64 64 64 0 64 0
64 64 64 64 64 64 0 0 64 0 64 64 64 0 64 64 64 64 64 64 64 64 64 64
64 64 64 0 64 64 64 64 0 64 64 64 0 64 64 64 64 64 64 64 64 0 64 64
64 64 0 64 64 64;
#X coords 0 127 100 0 200 140 1 0 0;
#X restore 794 187 graph;
#X obj 217 34 tabwrite vlct;
#X obj 285 174 tabread vlct;
#X obj 216 368 / 127;
#X text 253 306 velocity mapping;
#X obj 202 325 *~;
#X obj 217 265 vline~;
#X obj 201 286 *~;
#X text 470 233 1 5 0 = wait 0ms \, then ramp to 1 in 5ms;
#X text 446 252 0.02 50 5 = wait 5 ms \, then ramp to 0.02 in 50ms
;
#X text 447 271 0 1000 55 = wait 55ms \, then ramp to 0 in 1000ms;
#X msg 217 245 0 0 0 \, 1 5 0 \, 0.02 50 5 \, 0 1000 55;
#X obj 45 284 + 1;
#X obj 363 174 tabread dist;
#X obj 201 78 ctlin 20;
#X obj 201 100 tabwrite dist;
#X obj 201 121 ctlin 21;
#N canvas 0 50 450 250 (subpatch) 0;
#X array pan 100 float 5;
#A 0 63 63 63 63 0 0 63 63 63 63 63 63 63 63 63 63 63 63 63 63 63 63
63 63 63 63 63 63 63 63 63 63 63 63 63 63 63 63 63 63 63 63 63 63 63
63 63 63 63 63 63 63 63 127 127 63 63 63 63 63 63 63 63 63 63 63 63
63 63 63 63 63 63 63 63 63 63 63 63 63 63 63 63 63 63 63 63 63 63 63
63 63 63 127 127 127 63 63 63 63;
#X coords 0 127 100 0 200 140 1 0 0;
#X restore 794 503 graph;
#X obj 201 141 tabwrite pan;
#X obj 441 174 tabread pan;
#X text 258 266 ADSR envelope;
#X obj 201 501 freeverb~;
#X msg 363 473 roomsize \$1;
#X msg 275 436 wet \$1;
#X msg 363 436 dry \$1;
#X obj 363 413 expr 1-$f1;
#X obj 447 449 hsl 128 15 0 1 0 0 empty empty empty -2 -8 0 10 -262144
-1 -1 5650 1;
#X floatatom 444 474 5 0 0 0 - - -;
#X obj 363 386 / 127;
#X floatatom 232 325 5 0 0 0 - - -;
#X floatatom 325 437 5 0 0 0 - - -;
#X text 402 386 Reverb mapping;
#X text 469 214 0 0 0 = wait 0ms \, then ramp to 0 in 0ms;
#X obj 201 55 tabwrite pitch;
#X obj 201 174 tabread pitch;
#X obj 201 623 *~;
#X obj 226 623 *~;
#X obj 241 603 expr 1-$f1;
#X obj 241 580 / 127;
#X text 281 580 Pan mapping;
#X text 252 625 Left/Right;
#X text 482 476 Room size;
#X text 431 430 (0: all dry \, 1: all wet);
#X text 431 414 Wet to dry signal ratio;
#X floatatom 312 604 5 0 0 0 - - -;
#X text 571 12 metronome toggle;
#X text 603 73 wrap tables at 100;
#X connect 0 0 17 0;
#X connect 0 0 58 0;
#X connect 0 1 26 0;
#X connect 1 0 2 0;
#X connect 2 0 4 0;
#X connect 2 0 20 0;
#X connect 3 0 26 1;
#X connect 3 0 27 0;
#X connect 3 0 38 0;
#X connect 3 0 40 1;
#X connect 3 0 43 1;
#X connect 3 0 44 0;
#X connect 3 0 58 1;
#X connect 3 0 59 0;
#X connect 4 0 2 1;
#X connect 5 0 1 0;
#X connect 8 0 9 0;
#X connect 9 0 32 0;
#X connect 13 0 30 1;
#X connect 13 0 54 0;
#X connect 14 0 46 0;
#X connect 15 0 28 0;
#X connect 17 0 21 0;
#X connect 18 0 19 0;
#X connect 20 0 3 0;
#X connect 21 0 23 0;
#X connect 21 0 37 0;
#X connect 27 0 13 0;
#X connect 27 0 36 0;
#X connect 28 0 14 1;
#X connect 30 0 14 0;
#X connect 31 0 32 1;
#X connect 32 0 30 0;
#X connect 36 0 31 0;
#X connect 37 0 21 1;
#X connect 38 0 53 0;
#X connect 39 0 40 0;
#X connect 41 0 43 0;
#X connect 44 0 63 0;
#X connect 46 0 60 0;
#X connect 46 0 61 0;
#X connect 47 0 46 0;
#X connect 48 0 46 0;
#X connect 49 0 46 0;
#X connect 50 0 49 0;
#X connect 51 0 47 0;
#X connect 51 0 52 0;
#X connect 53 0 48 0;
#X connect 53 0 50 0;
#X connect 53 0 55 0;
#X connect 59 0 8 0;
#X connect 60 0 10 0;
#X connect 61 0 10 1;
#X connect 62 0 61 1;
#X connect 63 0 62 0;
#X connect 63 0 60 1;
#X connect 63 0 69 0;
